<svg width="140" height="34" viewBox="0 0 140 34" fill="none" xmlns="http://www.w3.org/2000/svg">
<path fill-rule="evenodd" clip-rule="evenodd" d="M16.6934 0.0139224C16.1878 0.0715726 15.7285 0.23632 15.3047 0.51202C15.215 0.570405 14.9947 0.728805 14.8152 0.864044C13.8182 1.61533 12.8649 2.5881 12.1194 3.61513C10.9513 5.22422 10.1279 7.01658 9.56482 9.17608L9.48234 9.49239L10.6795 10.6905C11.3379 11.3494 11.8797 11.8856 11.8834 11.8819C11.887 11.8782 11.9084 11.7661 11.9307 11.6327C12.2737 9.58688 12.9928 7.6791 14.0628 5.97628C14.8827 4.67135 15.9644 3.5344 16.9081 2.98553L17.0023 2.93074L17.2752 3.1133C17.629 3.34996 17.9391 3.59975 18.2331 3.885L18.4694 4.11423L18.9911 3.88167C19.8969 3.47802 20.6441 3.19705 21.1937 3.05353C21.2919 3.02792 21.3721 3.00145 21.3721 2.99473C21.3718 2.95988 20.8227 2.35897 20.4556 1.99174C19.747 1.28296 18.7932 0.533223 18.3051 0.301276C17.8242 0.0727562 17.1819 -0.0417687 16.6934 0.0139224ZM8.19715 3.94412C7.6245 3.98497 6.7091 4.10533 6.40241 4.18008C5.85018 4.31467 5.3883 4.57713 4.9739 4.99176C4.70907 5.2567 4.51836 5.52447 4.37623 5.83082C4.22152 6.16429 4.15405 6.41483 4.06886 6.97211C3.72003 9.254 3.9941 11.6172 4.88184 13.982C5.22463 14.8951 5.86953 16.2086 6.32717 16.9257L6.38252 17.0124H8.07504C9.00592 17.0124 9.76754 17.0089 9.76754 17.0045C9.76754 17.0001 9.67134 16.8614 9.55376 16.6961C8.87376 15.7405 8.26369 14.6155 7.81005 13.4805C6.92052 11.255 6.61916 8.94695 6.99694 7.25303C7.02738 7.11655 7.05137 7.05133 7.07364 7.0446C7.38231 6.95115 8.01272 6.8676 8.50364 6.85509L8.9223 6.8444L9.1132 6.35216C9.4874 5.38725 9.80833 4.67708 10.091 4.18841C10.1489 4.08842 10.1934 4.00387 10.1901 4.00052C10.1547 3.96516 8.542 3.91951 8.19715 3.94412ZM24.2376 3.95271C21.8334 4.13115 19.5364 4.87515 17.2983 6.20035L16.9873 6.38451V8.08652V9.78854L17.1759 9.65186C19.1529 8.21954 21.6159 7.21644 23.8501 6.9336C24.8252 6.81018 25.8442 6.8252 26.583 6.97391C26.6119 6.97973 26.6385 6.98498 26.6628 6.9898C26.8321 7.02328 26.8966 7.03604 26.9288 7.07552C26.9486 7.09984 26.9562 7.13428 26.9684 7.18994C26.9713 7.20297 26.9744 7.21716 26.978 7.23265C27.0752 7.65146 27.1259 8.05953 27.1417 8.55097L27.1541 8.93603L27.6663 9.13547C28.6326 9.5117 29.2908 9.80979 29.7952 10.0996L29.9889 10.2109L30.0024 10.0965C30.0098 10.0336 30.0272 9.75718 30.0411 9.48219C30.0827 8.65462 30.0467 7.94975 29.9165 7.04353C29.8178 6.35657 29.7481 6.11011 29.5381 5.70687C29.2513 5.1561 28.737 4.65951 28.176 4.39169C27.7592 4.19272 27.228 4.0785 26.2669 3.98118C25.8935 3.94336 24.6067 3.92532 24.2376 3.95271ZM24.3742 17.2412C25.7315 19.1102 26.7185 21.5058 27.0301 23.6877C27.1187 24.3086 27.1333 24.5238 27.1324 25.1957C27.1314 25.8834 27.1112 26.1199 27.0109 26.6169C27.0067 26.6379 27.0028 26.6575 26.9991 26.676C26.9655 26.8442 26.9518 26.9128 26.9103 26.9489C26.8816 26.9737 26.8397 26.9831 26.7689 26.9989C26.7576 27.0014 26.7456 27.0041 26.7328 27.007C26.3415 27.0966 25.6403 27.1749 25.2268 27.1751L25.0534 27.1752L24.8718 27.6497C24.5271 28.5507 24.2006 29.2734 23.895 29.812C23.8014 29.977 23.7882 30.0119 23.8163 30.0198C23.8349 30.0251 24.0428 30.0404 24.2784 30.0539C24.8954 30.0893 25.9257 30.0694 26.3995 30.013C26.8994 29.9535 27.4067 29.8744 27.5996 29.8257C28.3981 29.6246 29.0859 29.1038 29.4968 28.3894C29.688 28.057 29.8008 27.715 29.8852 27.2113C30.1369 25.7099 30.1128 24.1298 29.8141 22.553C29.4813 20.7959 28.7712 18.9615 27.7768 17.2903L27.6114 17.0124H25.9097H24.2081L24.3742 17.2412ZM22.0663 22.2803C22.0523 22.3742 22.0058 22.6301 21.9629 22.8489C21.4867 25.2813 20.4134 27.6068 18.9631 29.3486C18.5824 29.8058 17.9364 30.423 17.5071 30.7397C17.3458 30.8587 17.01 31.073 16.985 31.073C16.9521 31.073 16.4212 30.7048 16.2021 30.5301C16.0787 30.4317 15.876 30.2519 15.7517 30.1305C15.6273 30.0091 15.5172 29.9098 15.5069 29.9098C15.4966 29.9098 15.2634 30.0094 14.9886 30.1313C14.0867 30.5312 13.535 30.7413 12.9227 30.9184C12.7568 30.9663 12.6192 31.011 12.6168 31.0177C12.6063 31.0479 13.0829 31.5743 13.4998 31.9929C13.9913 32.4864 14.2751 32.7329 14.856 33.1708C15.3057 33.5097 15.4497 33.6039 15.6894 33.7157C16.1316 33.922 16.4875 34 16.9873 34C17.8427 34 18.4061 33.76 19.39 32.9766C20.6895 31.9418 21.7904 30.6619 22.6688 29.1649C22.8692 28.8232 23.3114 27.9584 23.4617 27.6139C23.8457 26.734 24.1564 25.8336 24.3939 24.9118L24.496 24.5156L23.2938 23.3127L22.0917 22.1098L22.0663 22.2803ZM3.95871 24.2009C3.91635 24.9257 3.91152 25.2034 3.93361 25.6447C3.96562 26.285 4.08187 27.2392 4.17226 27.6037C4.42292 28.6147 5.17206 29.4326 6.14439 29.7568C6.95817 30.0281 8.74472 30.1542 10.0531 30.0327C12.2876 29.8251 14.4991 29.0931 16.5794 27.8723C16.742 27.7769 16.9003 27.6843 16.9311 27.6666L16.987 27.6344L16.9872 25.933C16.9873 24.2457 16.987 24.2318 16.9472 24.2596C16.9252 24.275 16.7828 24.3748 16.6308 24.4815C13.6843 26.5487 9.93288 27.5706 7.3123 27.0199C7.17641 26.9914 7.0581 26.9611 7.04939 26.9527C7.02231 26.9265 6.93406 26.4733 6.89082 26.1381C6.8681 25.9621 6.84385 25.651 6.83694 25.4466C6.82884 25.2079 6.81638 25.072 6.80204 25.0662C6.78977 25.0612 6.55486 24.97 6.28004 24.8635C5.38612 24.517 4.66076 24.1868 4.16919 23.9026C4.07945 23.8508 4.00054 23.8083 3.99385 23.8082C3.98714 23.8081 3.97134 23.9848 3.95871 24.2009Z" fill="#51DAA3"/>
<path d="M23.2901 10.6956C22.6344 11.3518 22.1021 11.8922 22.1072 11.8966C22.1124 11.9011 22.19 11.9159 22.2797 11.9296C23.5456 12.1231 25.023 12.5671 26.2362 13.1186C28.3332 14.0719 30.0943 15.4618 30.9536 16.8417L31.057 17.0078L30.9833 17.1274C30.7651 17.4818 30.4522 17.8822 30.0912 18.269L29.8803 18.4951L30.0025 18.769C30.5141 19.916 30.7753 20.6092 30.9699 21.3362L30.9883 21.405L31.2513 21.175C31.81 20.6862 32.292 20.1998 32.6866 19.7266C32.9235 19.4424 33.3763 18.8444 33.507 18.6432C33.6883 18.3641 33.8687 17.9079 33.938 17.5532C33.9798 17.3392 33.9757 16.6191 33.9315 16.4202C33.8408 16.0121 33.6943 15.6574 33.4842 15.3367C32.8603 14.3847 31.8757 13.3215 30.8659 12.5095C29.3441 11.2856 27.4456 10.3238 25.3797 9.72995C25.0436 9.63335 24.5416 9.5026 24.5067 9.5026C24.4932 9.5026 23.9458 10.0394 23.2901 10.6956Z" fill="#0D0D0D"/>
<path d="M2.73136 12.8338C2.12427 13.3705 1.70056 13.7971 1.30682 14.2681C1.07675 14.5433 0.619725 15.149 0.478064 15.3665C0.00802601 16.088 -0.125621 17.031 0.122665 17.8741C0.246502 18.2946 0.456649 18.6615 0.916224 19.2597C1.66893 20.2396 2.61863 21.1609 3.64861 21.9105C4.72278 22.6923 6.05399 23.3926 7.42215 23.8957C8.04188 24.1236 9.16588 24.4617 9.41063 24.4939L9.49221 24.5047L10.6843 23.3104C11.4365 22.5568 11.8655 22.1129 11.8468 22.1073C11.8305 22.1025 11.6704 22.0742 11.4909 22.0444C9.01006 21.6332 6.47075 20.4941 4.64846 18.975C4.33308 18.7121 3.69947 18.0749 3.47823 17.7981C3.28285 17.5537 2.9353 17.0466 2.9353 17.0059C2.9353 16.9693 3.15296 16.6381 3.33671 16.3952C3.5396 16.1269 3.71322 15.9245 3.93067 15.7027L4.10435 15.5255L3.88423 15.0292C3.47715 14.1114 3.25016 13.5134 3.07666 12.9019C3.03232 12.7455 2.99384 12.6156 2.99116 12.6131C2.98847 12.6105 2.87157 12.7099 2.73136 12.8338Z" fill="#0D0D0D"/>
<path d="M119.44 8.17918L140 8.15381V25.9173H135.284V12.0364H124.155V25.9173H119.44V8.17918Z" fill="#0D0D0D"/>
<path d="M94.8552 8.17918L115.415 8.15381V25.9173H110.7V12.0364H99.5706V25.9173H94.8552V8.17918Z" fill="#0D0D0D"/>
<path d="M86.8599 8.17914L92.2345 25.9426H87.4177L86.1754 21.8062H76.6432L75.4009 25.9426H70.5841L75.9587 8.17914H86.8599ZM83.2346 12.0617H79.584L77.9108 17.6953H84.9078L83.2346 12.0617Z" fill="#0D0D0D"/>
<path d="M60.3347 8.17914H67.9402V25.9426H63.2248V12.2901L56.0502 25.9426H54.6559L47.4813 12.2901V25.9426H42.7659V8.17914H50.3714L55.3404 17.8222L60.3347 8.17914Z" fill="#0D0D0D"/>
</svg>
